<?xml version="1.0" encoding="UTF-8" standalone="no"?>
<svg
   xmlns:dc="http://purl.org/dc/elements/1.1/"
   xmlns:cc="http://creativecommons.org/ns#"
   xmlns:rdf="http://www.w3.org/1999/02/22-rdf-syntax-ns#"
   xmlns:svg="http://www.w3.org/2000/svg"
   xmlns="http://www.w3.org/2000/svg"
   xmlns:sodipodi="http://sodipodi.sourceforge.net/DTD/sodipodi-0.dtd"
   xmlns:inkscape="http://www.inkscape.org/namespaces/inkscape"
   id="Layer_1"
   data-name="Layer 1"
   viewBox="0 0 336.27554 178.64557"
   version="1.1"
   sodipodi:docname="itera.svg"
   width="336.27554"
   height="178.64557"
   inkscape:version="0.92.2 (5c3e80d, 2017-08-06)">
  <metadata
     id="metadata945">
    <rdf:RDF>
      <cc:Work
         rdf:about="">
        <dc:format>image/svg+xml</dc:format>
        <dc:type
           rdf:resource="http://purl.org/dc/dcmitype/StillImage" />
        <dc:title>iteralogoArtboard 1</dc:title>
      </cc:Work>
    </rdf:RDF>
  </metadata>
  <sodipodi:namedview
     pagecolor="#ffffff"
     bordercolor="#666666"
     borderopacity="1"
     objecttolerance="10"
     gridtolerance="10"
     guidetolerance="10"
     inkscape:pageopacity="0"
     inkscape:pageshadow="2"
     inkscape:window-width="1853"
     inkscape:window-height="1025"
     id="namedview943"
     showgrid="false"
     showguides="false"
     fit-margin-top="10"
     fit-margin-left="10"
     fit-margin-right="10"
     fit-margin-bottom="10"
     inkscape:zoom="2.11"
     inkscape:cx="130.80711"
     inkscape:cy="85.97606"
     inkscape:window-x="67"
     inkscape:window-y="27"
     inkscape:window-maximized="1"
     inkscape:current-layer="Layer_1" />
  <defs
     id="defs902">
    <style
       id="style900">.cls-1{fill:#d4101b;}.cls-2{fill:#fff;}</style>
  </defs>
  <title
     id="title904">iteralogoArtboard 1</title>
  <g
     id="g964"
     transform="translate(-32.7,-183.15987)"
     style="fill:#ffffff">
    <path
       style="fill:#ffffff;fill-opacity:1"
       id="path908"
       d="m 357,274.9 c -2.3,-0.4 -3.6,2.9 -9.1,8.2 a 34.14,34.14 0 0 1 -11.6,8.2 c -7.7,3.3 -9.1,-1.1 -8.3,-7.5 0.8,-6.7 3.7,-15.4 4.7,-20 a 7.79,7.79 0 0 0 -1,-5.9 c -1.6,-2.4 -5.3,-3.7 -7.3,-1.4 -2.9,3.4 -4.1,5.9 -13.3,17.4 -8.1,10.2 -18.6,18.6 -24.5,14 -3.2,-2.5 -3.6,-7.5 0,-14.5 3.9,-7.6 12.8,-16.3 20.8,-22.1 10.4,-7.6 16.2,-8.8 17.3,-9.1 1.4,-0.4 2.5,-0.4 3,0.2 1.2,1.4 -1.9,3.2 -0.9,6.5 a 5.24,5.24 0 0 0 4.5,3.4 c 2,0.2 6.9,-1.1 7.9,-7.4 1,-6.3 -4.8,-17.5 -31.7,-7.2 -20.5,7.9 -41.4,27.9 -45,44.1 -4,2.6 -9,4.7 -14.1,4.4 -9.5,-0.7 -8.7,-12.3 -4,-21.2 4.7,-8.9 13.1,-15.2 15.7,-17.6 3.6,-3.3 7.1,-3.8 5,-9.6 -1.5,-4.1 -3.8,-4.3 -7.7,-3.2 a 167.66,167.66 0 0 1 -27.3,5.4 c -0.2,-4.5 -3,-8.8 -9,-8.8 -6.2,0 -12.6,5.8 -13.7,13 -1.2,7.8 2.6,11.8 6,13.3 -7.1,13.1 -22.2,29.3 -36.8,30.4 -4.1,0.3 -7.9,-1.1 -9.8,-3.4 9.8,-5.6 19.4,-13.1 24.8,-24.3 7.1,-14.8 0,-23.5 -10.3,-23.5 -11.6,0 -32.7,11.7 -39.1,31.9 a 34.36,34.36 0 0 0 -0.5,18.6 58.41,58.41 0 0 1 -18.8,3.5 c -9.1,0 -9.3,-7 -7.1,-11.8 1.6,-3.3 14.1,-30.1 22.7,-48.4 27.7,-4.9 64.9,-11.4 71.7,-12.7 4.1,-0.8 9.1,-1 8.8,-4.5 -0.2,-2.7 -3.6,-2.6 -6.3,-2.5 l -66.5,3.4 c 7.1,-17.2 -9.5,-23.8 -12.3,-20 -1.1,1.5 -5.5,10.3 -10.8,21.2 l -12.2,0.6 c -5.4,0.4 -14.3,1.3 -15.6,10.2 -1,6.9 6.2,11 14.3,9.5 1.1,-0.2 2.4,-0.5 4.1,-0.7 -5.8,12 -10.9,22.9 -12.5,26.5 -4,8.7 -8.1,16.5 -9,23.9 -5.9,3.5 -12.3,6.1 -17.8,5.8 -9.1,-0.3 -8.9,-7.5 -6.9,-11.8 1.4,-3 3.8,-8.4 6.9,-15.1 4.2,-9 0.2,-16 -6.4,-18.3 -4.5,-1.6 -8.6,-1.7 -10.3,-0.1 -2.3,2 -0.6,7.2 -2.5,11.3 -4.1,8.4 -7.2,15.6 -9.3,20.1 -4.5,9.6 -3.8,17.9 1,23.2 3.4,3.8 9.1,6.2 16.7,6.2 9.1,0 20.4,-5.1 29.8,-11.2 a 22.56,22.56 0 0 0 1.1,2.2 c 2.9,5.1 9.1,8.6 17.6,8.6 9.4,0 22.9,-4.6 33.4,-10.6 3.9,5.3 10.2,9.1 19.8,9.2 27.8,0.4 49.7,-26 58.4,-46.9 7.7,-1.1 17.2,-4.9 17.2,-4.9 0,0 -24.7,22.7 -19.2,40.6 2.2,7.1 9.6,13 20.1,12 8.5,-0.8 15.8,-5.6 21.5,-11 3.8,9.4 13.5,10.8 20,9.9 16.2,-2.3 27,-18.4 27,-18.4 0,0 -1.7,6.2 0.6,11.5 1.6,3.9 5.5,7.5 12.8,7.5 16.4,0 29.4,-16.8 32,-20.9 4.7,-6.8 3.6,-9.1 1.3,-9.4 m -195.3,1.9 c -0.4,-0.9 -2.3,-8.3 3.4,-17.7 4.8,-7.9 13.1,-12.6 16.4,-9.8 2.3,1.9 -0.2,8.5 -7.4,16.8 a 48.65,48.65 0 0 1 -12.4,10.7"
       class="cls-2"
       inkscape:connector-curvature="0" />
    <path
       style="fill:#ffffff;fill-opacity:1"
       id="path910"
       d="m 72.8,239 c 6.8,0 13.6,-5.3 15.1,-11.9 1.5,-6.6 -2.8,-11.9 -9.7,-11.9 -6.9,0 -13.6,5.3 -15.1,11.9 -1.5,6.6 2.9,11.9 9.7,11.9"
       class="cls-2"
       inkscape:connector-curvature="0" />
    <path
       style="fill:#ffffff;fill-opacity:1"
       id="path912"
       d="M 55.4,347.5 H 53.5 L 44.9,329 45,351.4 H 42.7 V 326 h 3.1 L 54.4,344.7 63,326 h 3.1 v 25.4 H 63.8 L 64,329 Z"
       class="cls-2"
       inkscape:connector-curvature="0" />
    <path
       style="fill:#ffffff;fill-opacity:1"
       id="path914"
       d="m 69.5,351.4 9,-25.7 h 1.7 l 9,25.7 h -2.6 l -2.3,-7.1 h -9.8 l -2.3,7.1 z m 5.6,-9.1 h 8.4 l -4.2,-12.8 z"
       class="cls-2"
       inkscape:connector-curvature="0" />
    <path
       style="fill:#ffffff;fill-opacity:1"
       id="path916"
       d="m 97,339.1 -2.2,2.5 v 9.8 H 92.5 V 326 h 2.3 v 12.7 L 105.4,326 h 3 l -9.9,11.4 10.9,14 h -3 z"
       class="cls-2"
       inkscape:connector-curvature="0" />
    <path
       style="fill:#ffffff;fill-opacity:1"
       id="path918"
       d="M 126.2,339.2 H 115 v 10 h 12.4 v 2.1 H 112.7 V 326 h 14.7 v 2.1 H 115 v 9 h 11.2 z"
       class="cls-2"
       inkscape:connector-curvature="0" />
    <path
       style="fill:#ffffff;fill-opacity:1"
       id="path920"
       d="m 136,351.4 9,-25.7 h 1.7 l 9,25.7 h -2.6 l -2.3,-7.1 H 141 l -2.3,7.1 z m 5.6,-9.1 h 8.4 l -4.2,-12.8 z"
       class="cls-2"
       inkscape:connector-curvature="0" />
    <path
       style="fill:#ffffff;fill-opacity:1"
       id="path922"
       d="M 164.8,351.4 V 326 h 6.9 c 8.3,0 10.7,5.5 10.7,12.7 0,7.2 -2.4,12.7 -10.7,12.7 z m 2.3,-2.2 h 4.7 c 6.1,0 8.1,-4.5 8.1,-10.6 0,-6.1 -2,-10.6 -8.1,-10.6 h -4.7 z"
       class="cls-2"
       inkscape:connector-curvature="0" />
    <path
       style="fill:#ffffff;fill-opacity:1"
       id="path924"
       d="M 187.7,351.4 V 326 h 2.4 v 25.4 z"
       class="cls-2"
       inkscape:connector-curvature="0" />
    <path
       style="fill:#ffffff;fill-opacity:1"
       id="path926"
       d="m 209,339.2 h -10.9 v 12.2 h -2.3 V 326 h 14.4 v 2.1 h -12.1 v 9 H 209 Z"
       class="cls-2"
       inkscape:connector-curvature="0" />
    <path
       style="fill:#ffffff;fill-opacity:1"
       id="path928"
       d="m 227.6,339.2 h -10.9 v 12.2 h -2.3 V 326 h 14.4 v 2.1 h -12.1 v 9 h 10.9 z"
       class="cls-2"
       inkscape:connector-curvature="0" />
    <path
       style="fill:#ffffff;fill-opacity:1"
       id="path930"
       d="m 246.6,339.2 h -11.2 v 10 h 12.4 v 2.1 H 233.1 V 326 h 14.7 v 2.1 h -12.4 v 9 h 11.2 z"
       class="cls-2"
       inkscape:connector-curvature="0" />
    <path
       style="fill:#ffffff;fill-opacity:1"
       id="path932"
       d="m 254.7,351.4 h -2.3 V 326 h 8 c 6.3,0 8.3,2.8 8.3,7.1 0,3.4 -1.2,5.8 -4.7,6.7 l 6.1,11.5 h -2.7 l -5.7,-11.1 h -7 z m 0,-13.3 h 6.3 c 4.5,0 5.2,-2.3 5.2,-5 0,-2.7 -0.7,-5 -5.2,-5 h -6.3 z"
       class="cls-2"
       inkscape:connector-curvature="0" />
    <path
       style="fill:#ffffff;fill-opacity:1"
       id="path934"
       d="m 286.9,339.2 h -11.2 v 10 h 12.4 v 2.1 H 273.4 V 326 h 14.7 v 2.1 h -12.4 v 9 h 11.2 z"
       class="cls-2"
       inkscape:connector-curvature="0" />
    <path
       style="fill:#ffffff;fill-opacity:1"
       id="path936"
       d="m 308.6,351.4 -13.6,-20.7 0.1,20.7 h -2.3 V 326 h 1.7 L 308.1,346.7 308,326 h 2.3 v 25.4 z"
       class="cls-2"
       inkscape:connector-curvature="0" />
    <path
       style="fill:#ffffff;fill-opacity:1"
       id="path938"
       d="m 324.9,325.6 a 16.43,16.43 0 0 1 6.6,1.2 v 2.3 a 16.54,16.54 0 0 0 -6.6,-1.3 c -5.6,0 -7.6,4.8 -7.6,10.9 0,6.1 2,10.9 7.6,10.9 a 16.54,16.54 0 0 0 6.6,-1.3 v 2.3 a 16.43,16.43 0 0 1 -6.6,1.2 c -7.6,0 -10,-5.8 -10,-13 0,-7.2 2.4,-13.2 10,-13.2 z"
       class="cls-2"
       inkscape:connector-curvature="0" />
    <path
       style="fill:#ffffff;fill-opacity:1"
       id="path940"
       d="m 349.6,339.2 h -11.2 v 10 h 12.4 v 2.1 H 336 V 326 h 14.7 v 2.1 h -12.4 v 9 h 11.2 v 2.1 z"
       class="cls-2"
       inkscape:connector-curvature="0" />
  </g>
</svg>
